<?xml version="1.0" encoding="utf-8"?>
<!-- Generator: Adobe Illustrator 30.1.0, SVG Export Plug-In . SVG Version: 9.03 Build 0)  -->
<svg version="1.1" id="Layer_1" xmlns="http://www.w3.org/2000/svg" xmlns:xlink="http://www.w3.org/1999/xlink" x="0px" y="0px"
	 viewBox="0 0 349.3 92.1" style="enable-background:new 0 0 349.3 92.1;" xml:space="preserve">
<style type="text/css">
	.st0{fill:#FFFFFF;}
</style>
<g>
	<path class="st0" d="M46,1.4c-24.8,0-45,20.2-45,45s20.2,45,45,45s45-20.2,45-45S70.7,1.4,46,1.4z M35.2,69.8c-1,0-2.3-0.4-3.6-0.9
		L29,75.2l-5.1-1.8l0.7-1.8C30,58,36.2,42.5,59.5,37.4c0,0-27,0-35.8,25c0,0-4.7-4.7-4.7-10.1c0-5.4,5.4-16.9,18.9-19.6
		c3.8-0.8,8.1-1.3,12.3-2c10.6-1.4,20.8-2.9,22.8-6.8C73,23.9,64.9,69.8,35.2,69.8z"/>
</g>
<g>
	<path class="st0" d="M111.3,67.2V24.3H122v33.9h19.3v9H111.3z"/>
	<path class="st0" d="M159.3,68.1c-5,0-8.9-1.5-11.9-4.6c-3-3.1-4.5-7-4.5-11.7c0-4.6,1.5-8.5,4.4-11.6c2.9-3.1,6.7-4.6,11.4-4.6
		c4.2,0,7.7,1.3,10.5,3.8c3.7,3.4,5.5,8.3,5.4,14.9h-22.1c0.3,2.1,1.1,3.8,2.2,4.9c1.2,1.2,2.7,1.8,4.7,1.8c2.5,0,4.2-1,5.1-3.1h9.5
		c-0.7,3-2.4,5.4-5.2,7.3C166.3,67.1,163.1,68.1,159.3,68.1z M152.6,48.5h12.1c-0.2-1.8-0.8-3.3-1.8-4.4c-1.1-1.1-2.4-1.6-4-1.6
		C155.4,42.5,153.3,44.5,152.6,48.5z"/>
	<path class="st0" d="M190,68.1c-4,0-7.2-1.5-9.7-4.4c-2.5-2.9-3.7-6.9-3.7-11.9c0-4.8,1.2-8.7,3.8-11.7c2.5-3,5.7-4.5,9.7-4.5
		c3.7,0,6.5,1.5,8.6,4.4h0.2V24.3h9.8v42.9h-9.4V63h-0.1C197.1,66.4,194,68.1,190,68.1z M192.5,60.4c2,0,3.6-0.8,4.7-2.4
		c1.2-1.6,1.7-3.6,1.7-6.2c0-2.7-0.5-4.8-1.6-6.4s-2.7-2.4-4.7-2.4c-1.9,0-3.4,0.8-4.5,2.4c-1.1,1.6-1.6,3.7-1.6,6.4
		c0,2.7,0.5,4.8,1.6,6.4C189.2,59.6,190.6,60.4,192.5,60.4z"/>
	<path class="st0" d="M227.5,77.8c-4.3,0-7.7-0.9-10.4-2.5c-2.6-1.7-4.2-4.2-4.6-7.4h9.5c0.7,2,2.5,3,5.4,3c3.9,0,5.9-2,5.9-5.9
		v-3.1H233c-2.1,2.4-4.7,3.5-7.9,3.5c-3.7,0-6.8-1.3-9.4-3.9c-2.6-2.6-3.9-6.2-3.9-10.7c0-4.5,1.2-8.2,3.6-11.1
		c2.4-2.9,5.5-4.3,9.3-4.3c3.8,0,6.7,1.4,8.6,4.2h0.1v-3.3h9.4v27.7c0,4.4-1.4,7.8-4.1,10.2C236.2,76.6,232.5,77.8,227.5,77.8z
		 M227.4,58.2c2,0,3.6-0.7,4.7-2.1c1.1-1.4,1.6-3.3,1.6-5.5c0-2.2-0.5-4-1.6-5.4c-1.1-1.5-2.6-2.2-4.6-2.2c-1.8,0-3.3,0.7-4.4,2.1
		c-1.1,1.4-1.7,3.3-1.7,5.6c0,2.3,0.5,4.2,1.7,5.6C224.1,57.5,225.6,58.2,227.4,58.2z"/>
	<path class="st0" d="M262.5,68.1c-5,0-8.9-1.5-11.9-4.6c-3-3.1-4.5-7-4.5-11.7c0-4.6,1.5-8.5,4.4-11.6c2.9-3.1,6.7-4.6,11.4-4.6
		c4.2,0,7.7,1.3,10.5,3.8c3.7,3.4,5.5,8.3,5.4,14.9h-22.1c0.3,2.1,1.1,3.8,2.2,4.9c1.2,1.2,2.7,1.8,4.7,1.8c2.5,0,4.2-1,5.1-3.1h9.5
		c-0.7,3-2.4,5.4-5.2,7.3C269.5,67.1,266.3,68.1,262.5,68.1z M255.8,48.5h12.1c-0.2-1.8-0.8-3.3-1.8-4.4c-1.1-1.1-2.4-1.6-4-1.6
		C258.6,42.5,256.5,44.5,255.8,48.5z"/>
	<path class="st0" d="M281.1,67.2V36.4h9.4v4.8h0.2c2.1-3.5,4.9-5.3,8.4-5.3c0.9,0,1.6,0.1,1.9,0.2v8.4h-0.2c-3-0.4-5.4,0.1-7.2,1.6
		c-1.8,1.5-2.6,3.9-2.6,7.2v13.8H281.1z"/>
	<path class="st0" d="M304.2,67.2V24.3h9.9v42.9H304.2z"/>
	<path class="st0" d="M319.8,77.3v-7.6h3.4c2.7,0,4-1.1,4-3.2c0-1-0.6-3.2-1.9-6.4l-9.1-23.6h10.3l4.1,13.1l1.9,7.1h0.1
		c0.6-2.7,1.2-5.1,1.8-7.1l4-13.1h9.8l-10.6,31.1c-1.2,3.6-2.7,6.1-4.4,7.6c-1.7,1.4-4.1,2.2-7.2,2.2H319.8z"/>
</g>
</svg>
